<svg xmlns="http://www.w3.org/2000/svg" xmlns:xlink="http://www.w3.org/1999/xlink" width="164" height="412" viewBox="0 0 123 309"><g id="graph0" class="graph" transform="scale(1 1) rotate(0) translate(4 305)"><title>L</title><polygon fill="#fff" stroke="transparent" points="-4 4 -4 -305 119 -305 119 4 -4 4"/><g id="node1" class="node"><title>A</title><path fill="none" stroke="#000" d="M50,-264.5C50,-264.5 80,-264.5 80,-264.5 86,-264.5 92,-270.5 92,-276.5 92,-276.5 92,-288.5 92,-288.5 92,-294.5 86,-300.5 80,-300.5 80,-300.5 50,-300.5 50,-300.5 44,-300.5 38,-294.5 38,-288.5 38,-288.5 38,-276.5 38,-276.5 38,-270.5 44,-264.5 50,-264.5"/><text x="65" y="-278.8" font-family="Times,serif" font-size="14" text-anchor="middle">A</text></g><g id="node2" class="node"><title>B</title><path fill="Warning: EDGEHIGHLIGHT is not a known color. none" stroke="#000" d="M12,-176.5C12,-176.5 42,-176.5 42,-176.5 48,-176.5 54,-182.5 54,-188.5 54,-188.5 54,-200.5 54,-200.5 54,-206.5 48,-212.5 42,-212.5 42,-212.5 12,-212.5 12,-212.5 6,-212.5 0,-206.5 0,-200.5 0,-200.5 0,-188.5 0,-188.5 0,-182.5 6,-176.5 12,-176.5"/><text x="27" y="-190.8" font-family="Times,serif" font-size="14" text-anchor="middle">B</text></g><g id="edge1" class="edge"><title>A-&gt;B</title><path fill="none" stroke="#000" d="M53.14,-264.28C49.57,-258.62 45.85,-252.19 43,-246 39.58,-238.56 36.61,-230.19 34.18,-222.44"/><polygon fill="#000" stroke="#000" points="37.5 -221.33 31.31 -212.73 30.79 -223.31 37.5 -221.33"/><text x="59.5" y="-234.8" fill="#000" font-family="Times,serif" font-size="14" text-anchor="middle">REL1</text></g><g id="node3" class="node"><title>C</title><path fill="none" stroke="#000" d="M44,-88.5C44,-88.5 74,-88.5 74,-88.5 80,-88.5 86,-94.5 86,-100.5 86,-100.5 86,-112.5 86,-112.5 86,-118.5 80,-124.5 74,-124.5 74,-124.5 44,-124.5 44,-124.5 38,-124.5 32,-118.5 32,-112.5 32,-112.5 32,-100.5 32,-100.5 32,-94.5 38,-88.5 44,-88.5"/><text x="59" y="-102.8" font-family="Times,serif" font-size="14" text-anchor="middle">C</text></g><g id="edge2" class="edge"><title>A-&gt;C</title><path fill="none" stroke="#000" d="M71.43,-264.41C73.29,-258.65 75.07,-252.12 76,-246 82.85,-200.74 86.14,-187.64 76,-143 75.31,-139.97 74.33,-136.89 73.18,-133.88"/><polygon fill="#000" stroke="#000" points="76.34 -132.37 69.1 -124.63 69.94 -135.19 76.34 -132.37"/><text x="98.5" y="-190.8" font-family="Times,serif" font-size="14" text-anchor="middle">REL2</text></g><g id="edge3" class="edge"><title>B-&gt;C</title><path fill="none" stroke="#000" d="M31.85,-176.5C34.8,-166.62 38.8,-154 43,-143 44.12,-140.06 45.37,-137.02 46.65,-134.01"/><polygon fill="#000" stroke="#000" points="49.94 -135.23 50.78 -124.66 43.53 -132.4 49.94 -135.23"/><text x="59.5" y="-146.8" fill="#000" font-family="Times,serif" font-size="14" text-anchor="middle">REL2</text></g><g id="node4" class="node"><title>D</title><path fill="none" stroke="#000" d="M44,-0.5C44,-0.5 74,-0.5 74,-0.5 80,-0.5 86,-6.5 86,-12.5 86,-12.5 86,-24.5 86,-24.5 86,-30.5 80,-36.5 74,-36.5 74,-36.5 44,-36.5 44,-36.5 38,-36.5 32,-30.5 32,-24.5 32,-24.5 32,-12.5 32,-12.5 32,-6.5 38,-0.5 44,-0.5"/><text x="59" y="-14.8" font-family="Times,serif" font-size="14" text-anchor="middle">D</text></g><g id="edge4" class="edge"><title>C-&gt;D</title><path fill="none" stroke="#000" d="M59,-88.1C59,-76.25 59,-60.32 59,-46.79"/><polygon fill="#000" stroke="#000" points="62.5 -46.58 59 -36.58 55.5 -46.58 62.5 -46.58"/><text x="75.5" y="-58.8" fill="#000" font-family="Times,serif" font-size="14" text-anchor="middle">REL3</text></g></g></svg>