<svg xmlns="http://www.w3.org/2000/svg" xmlns:xlink="http://www.w3.org/1999/xlink" width="209pt" height="148pt" viewBox="0 0 208.5 148"><g id="graph0" class="graph" transform="scale(1 1) rotate(0) translate(4 144)"><title>L</title><polygon fill="#fff" stroke="transparent" points="-4 4 -4 -144 204.5 -144 204.5 4 -4 4"/><g id="node1" class="node"><title>N0</title><path fill="none" stroke="#000" d="M12.5,-103.5C12.5,-103.5 110.5,-103.5 110.5,-103.5 116.5,-103.5 122.5,-109.5 122.5,-115.5 122.5,-115.5 122.5,-127.5 122.5,-127.5 122.5,-133.5 116.5,-139.5 110.5,-139.5 110.5,-139.5 12.5,-139.5 12.5,-139.5 6.5,-139.5 0.5,-133.5 0.5,-127.5 0.5,-127.5 0.5,-115.5 0.5,-115.5 0.5,-109.5 6.5,-103.5 12.5,-103.5"/><text x="8.5" y="-117.8" font-family="Times,serif" font-size="14" text-anchor="start">message = &apos;Hello, &apos;</text></g><g id="node2" class="node"><title>N1</title><path fill="none" stroke="#000" d="M12,-0.5C12,-0.5 111,-0.5 111,-0.5 117,-0.5 123,-6.5 123,-12.5 123,-12.5 123,-24.5 123,-24.5 123,-30.5 117,-36.5 111,-36.5 111,-36.5 12,-36.5 12,-36.5 6,-36.5 0,-30.5 0,-24.5 0,-24.5 0,-12.5 0,-12.5 0,-6.5 6,-0.5 12,-0.5"/><text x="8" y="-14.8" font-family="Times,serif" font-size="14" text-anchor="start">message = &apos;World!&apos;</text></g><g id="edge1" class="edge"><title>N0-&gt;N1</title><path fill="none" stroke="#2e3436" d="M61.5,-103.37C61.5,-87.91 61.5,-64.92 61.5,-46.91"/><polygon fill="#2e3436" stroke="#2e3436" points="65 -46.72 61.5 -36.72 58 -46.72 65 -46.72"/><text x="131" y="-73.8" fill="#2e3436" font-family="Times,serif" font-size="14" text-anchor="middle">KNOWS</text><text x="61.5" y="-58.8" fill="#2e3436" font-family="Times,serif" font-size="14" text-anchor="start">message = &apos;brave Neo4j &apos;</text></g></g></svg>