<svg xmlns="http://www.w3.org/2000/svg" xmlns:xlink="http://www.w3.org/1999/xlink" width="800" height="662" version="1.1" viewBox="0 0 800 662"><title>socnet-model</title><desc>Created with Sketch.</desc><g id="Page-1" fill="none" fill-rule="evenodd" stroke="none" stroke-width="1"><g id="socnet-model"><g id="Group-59" transform="translate(5.000000, 5.000000)"><rect id="Rectangle-34" width="75" height="75" x="31.066" y="72.066" fill="#BCE9F4" transform="translate(68.566017, 109.566017) rotate(45.000000) translate(-68.566017, -109.566017)"/><rect id="Rectangle-35" width="125" height="75" x="222" y="72" fill="#FCD5C2"/><ellipse id="Oval-4" cx="502.5" cy="108.5" fill="#D1EBD4" rx="62.5" ry="37.5"/><text id="Friend" fill="#333" font-family="OpenSans-Regular, Open Sans" font-size="12" font-weight="normal"><tspan x="51" y="113">Friend</tspan></text><rect id="Rectangle-34" width="75" height="75" x="248" y="251.289" fill="#BCE9F4" transform="translate(285.500000, 288.789062) rotate(45.000000) translate(-285.500000, -288.789062)"/><text id="Status" fill="#333" font-family="OpenSans-Regular, Open Sans" font-size="12" font-weight="normal"><tspan x="268.467" y="292.756">Status</tspan></text><text id="Person" fill="#333" font-family="OpenSans-Regular, Open Sans" font-size="12" font-weight="normal"><tspan x="265" y="112">Person</tspan></text><rect id="Rectangle-35" width="125" height="75" x="441" y="382" fill="#FCD5C2"/><text id="StatusUpdate" fill="#333" font-family="OpenSans-Regular, Open Sans" font-size="12" font-weight="normal"><tspan x="465" y="423">StatusUpdate</tspan></text><text id="name" fill="#333" font-family="OpenSans-Regular, Open Sans" font-size="12" font-weight="normal"><tspan x="487" y="113">name</tspan></text><ellipse id="Oval-4" cx="402.5" cy="579.5" fill="#D1EBD4" rx="62.5" ry="37.5"/><text id="text" fill="#333" font-family="OpenSans-Regular, Open Sans" font-size="12" font-weight="normal"><tspan x="392" y="584">text</tspan></text><path id="Line-18" stroke="#333" stroke-linecap="square" stroke-width="2" d="M485.5,116.5 L520.5,116.5"/><circle id="Oval-3" cx="68.5" cy="162.5" r="3.5" fill="#979797" stroke="#979797"/><circle id="Oval-3" cx="68.5" cy="56.5" r="3.5" fill="#979797" stroke="#979797"/><circle id="Oval-3" cx="285.5" cy="235.5" r="3.5" fill="#979797" stroke="#979797"/><circle id="Oval-3" cx="285.053" cy="340.909" r="3.5" fill="#979797" stroke="#979797"/><circle id="Oval-3" cx="285.02" cy="71.492" r="3.5" fill="#979797" stroke="#979797"/><circle id="Oval-3" cx="222.191" cy="108.373" r="3.5" fill="#979797" stroke="#979797"/><circle id="Oval-3" cx="285.5" cy="146.5" r="3.5" fill="#979797" stroke="#979797"/><circle id="Oval-3" cx="347.02" cy="108.486" r="3.5" fill="#979797" stroke="#979797"/><circle id="Oval-3" cx="504.069" cy="382.5" r="3.5" fill="#979797" stroke="#979797"/><circle id="Oval-3" cx="441.075" cy="419.07" r="3.5" fill="#979797" stroke="#979797"/><circle id="Oval-3" cx="401.876" cy="542.003" r="3.5" fill="#979797" stroke="#979797"/><g id="Group-58" transform="translate(543.564854, 538.072647)"><ellipse id="Oval-4" cx="62.5" cy="41.5" fill="#D1EBD4" rx="62.5" ry="37.5"/><text id="date" fill="#333" font-family="OpenSans-Regular, Open Sans" font-size="12" font-weight="normal"><tspan x="48" y="45">date</tspan></text><circle id="Oval-3" cx="62.5" cy="3.5" r="3.5" fill="#979797" stroke="#979797"/></g><circle id="Oval-3" cx="504.002" cy="457.5" r="3.5" fill="#979797" stroke="#979797"/><circle id="Oval-3" cx="565.984" cy="419.082" r="3.5" fill="#979797" stroke="#979797"/><circle id="Oval-3" cx="440.02" cy="108.486" r="3.5" fill="#979797" stroke="#979797"/><path id="Line-19" stroke="#979797" stroke-linecap="square" stroke-width="2" d="M285.5,146.5 L285.5,235.5"/><path id="Line-20" stroke="#979797" stroke-linecap="square" stroke-width="2" d="M347.5,108.5 L439.5,108.5"/><path id="Path-9" stroke="#979797" stroke-width="2" d="M68.5,161.953956 C68.5,165.374879 68.5,167.716477 68.5,168.978749 C68.5,169.319166 68.5,169.659583 68.5,170 L68.49999,170 C68.49999,172.761424 70.7385662,175 73.49999,175 C73.4999933,175 73.4999967,175 73.5,175 L179.558137,174.999767 C182.319557,174.999762 184.558127,172.761187 184.558127,169.999767 L184.558137,136 L184.558137,113.486074 C184.558137,110.72465 186.796713,108.486074 189.558137,108.486074 L201,108.486074 L222.472546,108.486074"/><path id="Path-10" stroke="#979797" stroke-width="2" d="M69,56 L69,48 C69,45.2385763 71.2385763,43 74,43 L280,43 C282.761424,43 285,45.2385763 285,48 L285,72"/><path id="Path-11" stroke="#979797" stroke-width="2" d="M285,341 L285,414 C285,416.761424 287.238576,419 290,419 L441,419"/><g id="Group-57" transform="translate(566.000000, 231.000000)"><g id="Group-56" transform="translate(102.530837, 0.986164)"><rect id="Rectangle-34" width="75" height="75" x="16" y="19.289" fill="#BCE9F4" transform="translate(53.500000, 56.789062) rotate(45.000000) translate(-53.500000, -56.789062)"/><text id="next" fill="#333" font-family="OpenSans-Regular, Open Sans" font-size="12" font-weight="normal"><tspan x="41.467" y="59.756">next</tspan></text><circle id="Oval-3" cx="53.5" cy="3.5" r="3.5" fill="#979797" stroke="#979797"/><circle id="Oval-3" cx="53.5" cy="109.5" r="3.5" fill="#979797" stroke="#979797"/></g><path id="Path-11" stroke="#979797" stroke-width="2" d="M0,110 L0,183 C3.38176876e-16,185.761424 2.23857625,188 5,188 L156,188" transform="translate(78.000000, 149.000000) scale(-1, 1) translate(-78.000000, -149.000000)"/></g><path id="Path-12" stroke="#979797" stroke-width="2" d="M504,382 L504,212 C504,209.238576 506.238576,207 509,207 L717,207 C719.761424,207 722,209.238576 722,212 L722,236"/><path id="Path-13" stroke="#979797" stroke-width="2" d="M606,457 L606,495 C606,497.761424 603.761424,500 601,500 L509,500 C506.238576,500 504,502.238576 504,505 L504,542" transform="translate(555.000000, 499.500000) scale(-1, 1) translate(-555.000000, -499.500000)"/><rect id="Rectangle-36" width="789" height="651" x=".5" y=".5" stroke="#979797"/><path id="Path-13" stroke="#979797" stroke-width="2" d="M504,457 L504,495 C504,497.761424 501.761424,500 499,500 L407,500 C404.238576,500 402,502.238576 402,505 L402,542"/></g></g></g></svg>